<?xml version="1.0" encoding="UTF-8" standalone="no"?>
<!-- Created with Inkscape (http://www.inkscape.org/) -->

<svg
   id="svg2403"
   sodipodi:version="0.32"
   inkscape:version="1.1.2 (0a00cf5339, 2022-02-04)"
   width="900"
   height="360"
   xml:space="preserve"
   sodipodi:docname="Open_Access_PLoS.svg"
   inkscape:output_extension="org.inkscape.output.svg.inkscape"
   version="1.1"
   xmlns:inkscape="http://www.inkscape.org/namespaces/inkscape"
   xmlns:sodipodi="http://sodipodi.sourceforge.net/DTD/sodipodi-0.dtd"
   xmlns="http://www.w3.org/2000/svg"
   xmlns:svg="http://www.w3.org/2000/svg"
   xmlns:rdf="http://www.w3.org/1999/02/22-rdf-syntax-ns#"
   xmlns:cc="http://creativecommons.org/ns#"
   xmlns:dc="http://purl.org/dc/elements/1.1/"><metadata
     id="metadata2408"><rdf:RDF><cc:Work
         rdf:about=""><dc:format>image/svg+xml</dc:format><dc:type
           rdf:resource="http://purl.org/dc/dcmitype/StillImage" /></cc:Work></rdf:RDF></metadata><defs
     id="defs2406"><inkscape:perspective
       sodipodi:type="inkscape:persp3d"
       inkscape:vp_x="0 : 526.18109 : 1"
       inkscape:vp_y="0 : 1000 : 0"
       inkscape:vp_z="744.09448 : 526.18109 : 1"
       inkscape:persp3d-origin="372.04724 : 350.78739 : 1"
       id="perspective2410" /><clipPath
       clipPathUnits="userSpaceOnUse"
       id="clipPath2418"><path
         d="M 0,288 L 720,288 L 720,0 L 0,0 L 0,288 z"
         id="path2420" /></clipPath></defs><sodipodi:namedview
     inkscape:window-height="1080"
     inkscape:window-width="1920"
     inkscape:pageshadow="2"
     inkscape:pageopacity="0.0"
     guidetolerance="10.0"
     gridtolerance="10.0"
     objecttolerance="10.0"
     borderopacity="1.0"
     bordercolor="#666666"
     pagecolor="#ffffff"
     id="base"
     showgrid="false"
     inkscape:zoom="0.60444444"
     inkscape:cx="454.13603"
     inkscape:cy="179.50368"
     inkscape:window-x="0"
     inkscape:window-y="0"
     inkscape:current-layer="g2416"
     inkscape:pagecheckerboard="false"
     inkscape:window-maximized="1" /><g
     id="g2412"
     inkscape:groupmode="layer"
     inkscape:label="Open Access logo"
     transform="matrix(1.25,0,0,-1.25,0,360)"><g
       id="g2414"><g
         id="g2416"
         clip-path="url(#clipPath2418)"><path
           d="m 262.883,200.896 v -8.846 h 25.939 v 8.846 c 0,21.412 17.421,38.831 38.83,38.831 21.409,0 38.829,-17.419 38.829,-38.831 v -63.985 h 25.939 v 63.985 c 0,35.713 -29.056,64.769 -64.768,64.769 -35.711,0 -64.769,-29.056 -64.769,-64.769"
           style="fill:#f68212;fill-opacity:1;fill-rule:nonzero;stroke:none"
           id="path2424" /><path
           d="m 349.153,99.568 c 0,-11.816 -9.58,-21.396 -21.399,-21.396 -11.818,0 -21.399,9.58 -21.399,21.396 0,11.823 9.581,21.404 21.399,21.404 11.819,0 21.399,-9.581 21.399,-21.404"
           style="fill:#f68212;fill-opacity:1;fill-rule:nonzero;stroke:none"
           id="path2426" /><path
           d="m 277.068,99.799 c 0,27.811 22.627,50.436 50.437,50.436 27.809,0 50.433,-22.625 50.433,-50.436 0,-27.808 -22.624,-50.437 -50.433,-50.437 -27.81,0 -50.437,22.629 -50.437,50.437 m -25.938,0 c 0,-42.108 34.265,-76.373 76.375,-76.373 42.111,0 76.373,34.265 76.373,76.373 0,42.114 -34.262,76.375 -76.373,76.375 -42.11,0 -76.375,-34.261 -76.375,-76.375"
           style="fill:#f68212;fill-opacity:1;fill-rule:nonzero;stroke:none"
           id="path2428" /><path
           d="m 51.742,106.854 c 7.948,0 12.499,7.485 12.499,17.667 0,9.339 -4.396,17.368 -12.499,17.368 -8.103,0 -12.657,-7.87 -12.657,-17.596 0,-9.803 4.708,-17.439 12.581,-17.439 z m -0.54,-9.341 c -15.356,0 -24.461,11.653 -24.461,26.468 0,15.594 10.03,27.24 25.31,27.24 15.972,0 24.691,-11.956 24.691,-26.31 0,-17.135 -10.264,-27.398 -25.465,-27.398 z"
           style="fill:#f68212;fill-opacity:1;fill-rule:nonzero;stroke:none"
           id="path2430" /><path
           d="m 98.851,126.071 c 1.001,-0.237 2.237,-0.31 3.931,-0.31 6.254,0 10.11,3.164 10.11,8.409 0,4.785 -3.241,7.639 -9.181,7.639 -2.392,0 -4.013,-0.153 -4.86,-0.382 z m -11.653,23.608 c 3.625,0.618 8.72,1.079 15.897,1.079 7.25,0 12.499,-1.383 15.971,-4.243 3.32,-2.543 5.48,-6.868 5.48,-11.961 0,-5.168 -1.621,-9.49 -4.708,-12.345 -4.014,-3.703 -10.031,-5.478 -16.977,-5.478 -1.542,0 -2.932,0.076 -4.01,0.312 V 98.363 H 87.198 Z"
           style="fill:#f68212;fill-opacity:1;fill-rule:nonzero;stroke:none"
           id="path2432" /><path
           d="m 165.711,120.357 h -19.139 v -12.343 h 21.376 v -9.651 h -33.103 v 52.013 h 32.023 v -9.647 h -20.296 v -10.803 h 19.139 z"
           style="fill:#f68212;fill-opacity:1;fill-rule:nonzero;stroke:none"
           id="path2434" /><path
           d="m 181.763,98.363 v 52.013 h 13.734 l 10.801,-19.059 c 3.091,-5.483 6.097,-11.961 8.489,-17.827 h 0.157 c -0.694,6.867 -0.929,13.888 -0.929,21.762 v 15.124 H 224.82 V 98.363 h -12.346 l -11.112,20.064 c -3.088,5.636 -6.56,12.27 -9.029,18.366 h -0.309 c 0.384,-6.944 0.54,-14.273 0.54,-22.762 V 98.363 Z"
           style="fill:#f68212;fill-opacity:1;fill-rule:nonzero;stroke:none"
           id="path2436" /><path
           d="m 450.392,120.509 -3.239,11.038 c -0.849,3.085 -1.778,7.019 -2.549,10.032 h -0.226 c -0.698,-3.085 -1.548,-7.019 -2.32,-10.032 l -3.16,-11.038 z m -13.196,-8.791 -3.623,-13.355 h -12.196 l 15.896,52.013 h 15.361 l 16.199,-52.013 h -12.654 l -4.014,13.355 z"
           style="fill:#f68212;fill-opacity:1;fill-rule:nonzero;stroke:none"
           id="path2438" /><path
           d="m 513.19,99.755 c -2.083,-1.003 -7.02,-2.242 -13.272,-2.242 -17.979,0 -27.24,11.271 -27.24,26.159 0,17.755 12.658,27.554 28.397,27.554 6.1,0 10.727,-1.238 12.811,-2.319 l -2.467,-9.26 c -2.319,1.001 -5.631,1.932 -9.88,1.932 -9.261,0 -16.516,-5.635 -16.516,-17.286 0,-10.414 6.175,-16.978 16.595,-16.978 3.621,0 7.482,0.699 9.875,1.7 z"
           style="fill:#f68212;fill-opacity:1;fill-rule:nonzero;stroke:none"
           id="path2440" /><path
           d="m 559.468,99.755 c -2.085,-1.003 -7.02,-2.242 -13.276,-2.242 -17.977,0 -27.238,11.271 -27.238,26.159 0,17.755 12.658,27.554 28.399,27.554 6.097,0 10.725,-1.238 12.809,-2.319 l -2.469,-9.26 c -2.313,1.001 -5.636,1.932 -9.879,1.932 -9.259,0 -16.513,-5.635 -16.513,-17.286 0,-10.414 6.175,-16.978 16.59,-16.978 3.63,0 7.489,0.699 9.878,1.7 z"
           style="fill:#f68212;fill-opacity:1;fill-rule:nonzero;stroke:none"
           id="path2442" /><path
           d="m 603.989,120.357 h -19.137 v -12.343 h 21.377 v -9.651 h -33.105 v 52.013 h 32.027 v -9.647 h -20.299 v -10.803 h 19.137 z"
           style="fill:#f68212;fill-opacity:1;fill-rule:nonzero;stroke:none"
           id="path2444" /><path
           d="m 620.428,110.406 c 3.085,-1.622 8.024,-3.244 13.04,-3.244 5.399,0 8.258,2.236 8.258,5.708 0,3.163 -2.468,5.095 -8.721,7.256 -8.642,3.085 -14.355,7.87 -14.355,15.509 0,8.876 7.487,15.591 19.679,15.591 5.942,0 10.184,-1.16 13.273,-2.622 l -2.625,-9.418 c -2.004,1.002 -5.79,2.47 -10.798,2.47 -5.1,0 -7.566,-2.391 -7.566,-5.015 0,-3.32 2.855,-4.783 9.646,-7.406 9.182,-3.401 13.429,-8.179 13.429,-15.589 0,-8.725 -6.636,-16.133 -20.914,-16.133 -5.941,0 -11.809,1.621 -14.739,3.243 z"
           style="fill:#f68212;fill-opacity:1;fill-rule:nonzero;stroke:none"
           id="path2446" /><path
           d="m 664.835,110.406 c 3.087,-1.622 8.023,-3.244 13.038,-3.244 5.404,0 8.26,2.236 8.26,5.708 0,3.163 -2.471,5.095 -8.724,7.256 -8.638,3.085 -14.348,7.87 -14.348,15.509 0,8.876 7.479,15.591 19.673,15.591 5.944,0 10.188,-1.16 13.275,-2.622 l -2.623,-9.418 c -2.005,1.002 -5.786,2.47 -10.804,2.47 -5.094,0 -7.561,-2.391 -7.561,-5.015 0,-3.32 2.852,-4.783 9.644,-7.406 9.181,-3.401 13.426,-8.179 13.426,-15.589 0,-8.725 -6.637,-16.133 -20.913,-16.133 -5.938,0 -11.805,1.621 -14.734,3.243 z"
           style="fill:#f68212;fill-opacity:1;fill-rule:nonzero;stroke:none"
           id="path2448" /></g></g></g></svg>
